<mxfile host="app.diagrams.net" modified="2021-02-22T13:00:17.580Z" agent="5.0 (X11)" etag="aF6Oum02EaaFHvuC-mzT" version="14.4.2" type="github">
  <diagram name="Page-1" id="822b0af5-4adb-64df-f703-e8dfc1f81529">
    <mxGraphModel dx="924" dy="945" grid="1" gridSize="10" guides="1" tooltips="1" connect="1" arrows="1" fold="1" page="1" pageScale="1" pageWidth="1100" pageHeight="850" background="#ffffff" math="0" shadow="0">
      <root>
        <mxCell id="0" />
        <mxCell id="1" parent="0" />
        <mxCell id="LjekzXKPi0F_MQlNKpBp-2" value="ContrÃ´leur" style="verticalLabelPosition=bottom;html=1;fillColor=#6ABD46;strokeColor=#ffffff;verticalAlign=top;align=center;points=[[0.085,0.085,0],[0.915,0.085,0],[0.915,0.915,0],[0.085,0.915,0],[0.25,0,0],[0.5,0,0],[0.75,0,0],[1,0.25,0],[1,0.5,0],[1,0.75,0],[0.75,1,0],[0.5,1,0],[0.25,1,0],[0,0.75,0],[0,0.5,0],[0,0.25,0]];pointerEvents=1;shape=mxgraph.cisco_safe.compositeIcon;bgIcon=mxgraph.cisco_safe.architecture.generic_appliance;resIcon=mxgraph.cisco_safe.architecture.aci_controller;" parent="1" vertex="1">
          <mxGeometry x="320" y="160" width="50" height="50" as="geometry" />
        </mxCell>
        <mxCell id="LjekzXKPi0F_MQlNKpBp-3" value="" style="verticalLabelPosition=bottom;html=1;fillColor=#6ABD46;strokeColor=#ffffff;verticalAlign=top;align=center;points=[[0.085,0.085,0],[0.915,0.085,0],[0.915,0.915,0],[0.085,0.915,0],[0.25,0,0],[0.5,0,0],[0.75,0,0],[1,0.25,0],[1,0.5,0],[1,0.75,0],[0.75,1,0],[0.5,1,0],[0.25,1,0],[0,0.75,0],[0,0.5,0],[0,0.25,0]];pointerEvents=1;shape=mxgraph.cisco_safe.compositeIcon;bgIcon=mxgraph.cisco_safe.architecture.generic_appliance;resIcon=mxgraph.cisco_safe.architecture.aci_leaf_switch;" parent="1" vertex="1">
          <mxGeometry x="560" y="160" width="50" height="50" as="geometry" />
        </mxCell>
        <mxCell id="LjekzXKPi0F_MQlNKpBp-4" value="&lt;div&gt;Infrastructure&lt;/div&gt;" style="verticalLabelPosition=bottom;html=1;fillColor=#6ABD46;strokeColor=#ffffff;verticalAlign=top;align=center;points=[[0.085,0.085,0],[0.915,0.085,0],[0.915,0.915,0],[0.085,0.915,0],[0.25,0,0],[0.5,0,0],[0.75,0,0],[1,0.25,0],[1,0.5,0],[1,0.75,0],[0.75,1,0],[0.5,1,0],[0.25,1,0],[0,0.75,0],[0,0.5,0],[0,0.25,0]];pointerEvents=1;shape=mxgraph.cisco_safe.compositeIcon;bgIcon=mxgraph.cisco_safe.architecture.generic_appliance;resIcon=mxgraph.cisco_safe.architecture.aci_spine_switch;" parent="1" vertex="1">
          <mxGeometry x="510" y="160" width="50" height="50" as="geometry" />
        </mxCell>
        <mxCell id="LjekzXKPi0F_MQlNKpBp-5" value="Application" style="strokeColor=#dddddd;shadow=1;strokeWidth=1;rounded=1;absoluteArcSize=1;arcSize=2;labelPosition=center;verticalLabelPosition=middle;align=center;verticalAlign=bottom;spacingLeft=0;fontColor=#999999;fontSize=12;whiteSpace=wrap;spacingBottom=2;" parent="1" vertex="1">
          <mxGeometry x="110" y="142.5" width="70" height="85" as="geometry" />
        </mxCell>
        <mxCell id="LjekzXKPi0F_MQlNKpBp-6" value="" style="dashed=0;connectable=0;html=1;fillColor=#757575;strokeColor=none;shape=mxgraph.gcp2.application;part=1;" parent="LjekzXKPi0F_MQlNKpBp-5" vertex="1">
          <mxGeometry x="0.5" width="50" height="40" relative="1" as="geometry">
            <mxPoint x="-25" y="15" as="offset" />
          </mxGeometry>
        </mxCell>
        <mxCell id="LjekzXKPi0F_MQlNKpBp-8" value="" style="shape=flexArrow;endArrow=classic;startArrow=classic;html=1;" parent="1" edge="1">
          <mxGeometry width="50" height="50" relative="1" as="geometry">
            <mxPoint x="180" y="184.5" as="sourcePoint" />
            <mxPoint x="320" y="184.5" as="targetPoint" />
          </mxGeometry>
        </mxCell>
        <mxCell id="LjekzXKPi0F_MQlNKpBp-11" value="&lt;div&gt;Northbound API&lt;/div&gt;" style="edgeLabel;html=1;align=center;verticalAlign=top;resizable=0;points=[];" parent="LjekzXKPi0F_MQlNKpBp-8" vertex="1" connectable="0">
          <mxGeometry x="-0.1548" y="3" relative="1" as="geometry">
            <mxPoint x="10.83" y="3.5" as="offset" />
          </mxGeometry>
        </mxCell>
        <mxCell id="LjekzXKPi0F_MQlNKpBp-9" value="" style="shape=flexArrow;endArrow=classic;startArrow=classic;html=1;" parent="1" edge="1">
          <mxGeometry width="50" height="50" relative="1" as="geometry">
            <mxPoint x="370" y="184.5" as="sourcePoint" />
            <mxPoint x="510" y="184.5" as="targetPoint" />
            <Array as="points">
              <mxPoint x="440" y="185" />
            </Array>
          </mxGeometry>
        </mxCell>
        <mxCell id="LjekzXKPi0F_MQlNKpBp-12" value="Southbound API" style="edgeLabel;html=1;align=center;verticalAlign=top;resizable=0;points=[];" parent="LjekzXKPi0F_MQlNKpBp-9" vertex="1" connectable="0">
          <mxGeometry x="-0.2617" y="-2" relative="1" as="geometry">
            <mxPoint x="18.35" y="-1.87" as="offset" />
          </mxGeometry>
        </mxCell>
      </root>
    </mxGraphModel>
  </diagram>
</mxfile>
